<svg xmlns="http://www.w3.org/2000/svg" width="50" height="64" viewBox="0 0 50 64" fill="none">
<g clip-path="url(#clip0_4185_441)">
<path d="M14.6683 10.1641C14.2095 9.6707 13.7506 9.31341 13.2918 9.08882C12.833 8.86424 12.3266 8.75535 11.7761 8.75535C11.1337 8.75535 10.6002 8.94931 10.1787 9.34063C9.75731 9.73195 9.5432 10.2186 9.5432 10.8038C9.5432 11.3041 9.70633 11.7566 10.036 12.165C10.3589 12.5665 10.9366 13.0327 11.7795 13.5635C13.0539 14.3768 13.9478 15.139 14.4677 15.8502C14.9877 16.5614 15.246 17.3883 15.246 18.3342C15.246 19.6137 14.794 20.6788 13.8866 21.5261C12.9826 22.3734 11.844 22.7987 10.471 22.7987C9.78789 22.7987 9.20334 22.7511 8.71734 22.6524C8.23134 22.5537 7.66378 22.37 7.01465 22.1012V19.2156C7.48705 19.8077 7.97645 20.2398 8.48284 20.5155C8.98923 20.7911 9.5432 20.9306 10.1481 20.9306C10.9094 20.9306 11.5416 20.7128 12.0446 20.2739C12.5475 19.8383 12.799 19.2904 12.799 18.6337C12.799 18.062 12.6291 17.555 12.2859 17.116C11.9528 16.6839 11.3512 16.1905 10.4846 15.6392C9.23732 14.8498 8.36389 14.1182 7.8575 13.441C7.34771 12.7639 7.09621 11.988 7.09621 11.1169C7.09621 9.9089 7.55842 8.90167 8.47944 8.0952C9.40046 7.29214 10.556 6.88721 11.946 6.88721C12.5034 6.88721 12.9996 6.93485 13.4346 7.03353C13.8696 7.13221 14.2808 7.28534 14.6683 7.49631V10.1675V10.1641Z" fill="#eb4660"/>
<path d="M22.4748 10.9673V4.47471C22.4748 3.50831 22.434 2.69844 22.3559 2.0417C22.2777 1.38496 22.1349 0.704396 21.931 0.00341797H25.3466C25.1495 0.694188 25.0135 1.36454 24.932 2.01788C24.8538 2.67122 24.813 3.4913 24.813 4.47811V10.9707C24.813 11.9439 24.8538 12.7571 24.932 13.4139C25.0102 14.0706 25.1529 14.7478 25.3568 15.4454H21.9412C22.1383 14.7614 22.2743 14.091 22.3559 13.4343C22.434 12.7844 22.4748 11.9643 22.4748 10.9707V10.9673Z" fill="#eb4660"/>
<path d="M32.9119 22.6014C33.109 21.9174 33.245 21.2471 33.3266 20.5903C33.4047 19.9336 33.4455 19.1135 33.4455 18.1267V11.6341C33.4455 10.6677 33.4047 9.85787 33.3266 9.20112C33.2484 8.54438 33.1056 7.86382 32.9017 7.16284H36.3173C36.1202 7.85361 35.9843 8.52396 35.9027 9.1773C35.8245 9.83064 35.7837 10.6507 35.7837 11.6375V20.8898C36.9461 20.8421 37.918 20.7468 38.7065 20.6039C39.8994 20.3862 40.9598 20.0152 41.8842 19.4912L41.2453 21.0497L40.5961 22.6082H32.9085L32.9119 22.6014Z" fill="#eb4660"/>
<path d="M10.9129 44.4067C10.5696 43.784 10.1924 43.2123 9.78455 42.6917C9.37672 42.1711 8.82275 41.562 8.12944 40.8644L3.54474 36.274C2.86163 35.59 2.26348 35.0456 1.74349 34.6372C1.22351 34.2289 0.642352 33.8478 0.00341797 33.4939L2.04257 31.4522L6.02231 27.4675L5.96794 29.0566L6.14466 30.5573C5.54311 30.9554 5.03333 31.2174 4.6187 31.5135L3.66709 32.1872L3.22188 32.633L6.79039 36.2059L10.3895 32.6024L10.6478 34.1677L11.0318 35.5526C10.4643 35.6921 10.0734 35.7295 9.60442 36.0188C9.13542 36.3114 8.61543 36.747 8.03767 37.3221L7.9765 37.3833L11.7489 41.1604C12.7039 40.1464 12.5136 40.1804 13.0336 39.4284C13.7235 38.4314 14.2129 37.4173 14.495 36.3897L16.1229 39.163L14.444 40.844L12.9452 42.3582L10.9129 44.3931V44.4067Z" fill="#eb4660"/>
<path d="M21.3737 33.6675C21.3737 34.6407 21.4145 35.4573 21.4927 36.1141C21.5708 36.7708 21.7136 37.448 21.9175 38.1456H18.7772C18.9743 37.4616 19.1103 36.7912 19.1918 36.1345C19.27 35.4778 19.3108 34.6577 19.3108 33.6709V24.9801C18.9641 24.5207 18.665 24.143 18.4136 23.847C17.8698 23.1902 17.5129 22.8091 17.3396 22.7036H20.9999C21.4247 23.4795 21.8359 24.16 22.2268 24.7521C22.6176 25.3442 23.6678 28.2604 24.7009 30.0469L26.7945 34.3752V27.1749C26.7945 26.2085 26.7537 25.3986 26.6755 24.7419C26.5973 24.0852 26.4546 23.4046 26.2507 22.7036H29.391C29.1939 23.3944 29.0579 24.0681 28.9764 24.7249C28.8982 25.3816 28.8574 26.1983 28.8574 27.1783V34.4399C28.8574 35.1953 28.905 35.9303 29.0035 36.6483C29.1021 37.3629 29.2245 37.8631 29.3672 38.1456H26.2269C26.1929 37.921 26.006 37.5262 25.6593 36.958C25.3161 36.3897 24.1062 33.4769 23.6406 32.878L21.3669 27.59V33.6675H21.3737Z" fill="#eb4660"/>
<path d="M37.2281 37.1655L43.7942 30.5913C43.1961 30.04 42.6591 29.584 42.1867 29.2335C41.2691 28.5462 40.4126 28.08 39.6174 27.8316L40.8816 27.2089L42.1527 26.5793L45.8062 30.2374L50.0034 34.4398L48.8445 35.083L47.6788 35.7193C47.2812 34.838 46.9073 34.12 46.5573 33.5653C46.248 33.0855 45.8911 32.6329 45.4935 32.2076L38.8867 38.8226C38.2579 39.4522 37.7413 40.034 37.3403 40.5615C36.9393 41.0889 36.545 41.7048 36.1542 42.4092L34.9069 41.1604L33.6528 39.9047C34.3427 39.5304 34.9511 39.1391 35.4745 38.7342C35.9979 38.3292 36.5824 37.8052 37.2281 37.1621V37.1655Z" fill="#eb4660"/>
<path d="M19.1714 55.265V53.0328C19.1714 52.0664 19.1306 51.2565 19.0524 50.6032C18.9742 49.9499 18.8315 49.2693 18.6276 48.5581H22.0432C21.8461 49.2489 21.7101 49.9226 21.6285 50.5794C21.5504 51.2361 21.5096 52.0528 21.5096 53.0328L21.5028 55.2412H26.5667V53.0328C26.5667 52.0664 26.5259 51.2565 26.4477 50.5998C26.3696 49.943 26.2268 49.2625 26.0229 48.5615H29.4385C29.2414 49.2523 29.1054 49.926 29.0239 50.5828C28.9457 51.2395 28.9049 52.0562 28.9049 53.0362V55.214C30.1624 55.197 31.6442 55.1766 32.069 55.1255C32.7249 55.0473 33.4012 54.9043 34.098 54.7002V56.405V58.12C33.4148 57.9226 32.7453 57.7865 32.0894 57.7049C31.668 57.6538 30.1726 57.6062 28.9049 57.5858V59.5254C28.9049 60.4986 28.9457 61.3118 29.0239 61.9686C29.102 62.6253 29.2448 63.3025 29.4487 64H26.0331C26.2302 63.3161 26.3662 62.6457 26.4477 61.989C26.5259 61.3322 26.5667 60.5122 26.5667 59.5254V57.5858H21.5096V59.5254C21.5096 60.4986 21.5504 61.3118 21.6285 61.9686C21.7067 62.6253 21.8495 63.3025 22.0534 64H18.6378C18.8349 63.3161 18.9708 62.6457 19.0524 61.989C19.1306 61.3322 19.1714 60.5122 19.1714 59.5254V57.613L18.6888 57.5858C17.7236 57.5858 16.9147 57.6266 16.2588 57.7049C15.6028 57.7831 14.9231 57.926 14.223 58.1302V56.4254V54.7104C14.9129 54.9077 15.5825 55.0439 16.235 55.1255C16.8875 55.2038 17.7066 55.2446 18.6922 55.2446H19.1918" fill="#eb4660"/>
</g>
<defs fill="#000000">
<clipPath id="clip0_4185_441" fill="#000000">
<rect width="50" height="64" fill="#ffffff"/>
</clipPath>
</defs>
</svg>